<?xml version="1.0" standalone="no"?>
<!DOCTYPE svg PUBLIC "-//W3C//DTD SVG 20010904//EN"
 "http://www.w3.org/TR/2001/REC-SVG-20010904/DTD/svg10.dtd">
<svg version="1.0" xmlns="http://www.w3.org/2000/svg"
 width="908.000000pt" height="908.000000pt" viewBox="0 0 908.000000 908.000000"
 preserveAspectRatio="xMidYMid meet">
<metadata>
Created by potrace 1.11, written by Peter Selinger 2001-2013
</metadata>
<g transform="translate(0.000000,908.000000) scale(0.100000,-0.100000)"
fill="#000000" stroke="none">
<path d="M2340 6823 c0 -10 -54 -13 -236 -13 -185 0 -234 -3 -228 -12 6 -10 4
-10 -8 0 -11 9 -18 10 -23 2 -3 -6 -30 -10 -59 -9 -29 1 -58 -1 -64 -5 -6 -3
-13 0 -15 6 -4 9 -6 8 -6 -2 -1 -13 -2 -13 -11 0 -7 11 -10 11 -10 2 0 -10 -5
-10 -20 -2 -11 6 -20 7 -20 1 0 -5 -7 -12 -16 -15 -10 -4 -13 -2 -8 7 6 9 5 9
-7 0 -8 -6 -37 -13 -64 -14 -28 -1 -56 -7 -64 -13 -12 -9 -13 -8 -6 4 7 12 6
13 -7 3 -8 -7 -40 -14 -71 -15 -30 -2 -53 -6 -50 -10 2 -5 -14 -8 -37 -8 -30
0 -39 -3 -34 -12 5 -9 2 -9 -9 1 -12 9 -17 10 -17 2 0 -7 -4 -9 -10 -6 -5 3
-10 2 -10 -4 0 -6 -7 -8 -16 -4 -9 3 -20 0 -25 -8 -7 -11 -9 -11 -9 -1 0 7 -5
10 -10 7 -6 -4 -8 -10 -6 -14 3 -3 -10 -6 -29 -6 -23 1 -32 -2 -28 -11 3 -9
-2 -12 -16 -9 -12 2 -21 -1 -21 -6 0 -6 -4 -7 -10 -4 -5 3 -10 2 -10 -4 0 -5
-9 -8 -20 -6 -12 2 -26 -5 -35 -18 -8 -12 -15 -16 -15 -9 0 7 -5 10 -10 7 -6
-4 -8 -11 -5 -16 4 -5 -1 -9 -9 -9 -9 0 -16 -4 -16 -10 0 -5 -5 -10 -11 -10
-5 0 -7 6 -4 13 4 6 -1 3 -10 -8 -9 -11 -21 -20 -27 -20 -6 0 -13 -6 -16 -14
-3 -9 0 -11 8 -6 9 5 11 4 6 -3 -5 -9 -13 -9 -28 -1 -13 7 -18 7 -14 1 3 -6
-3 -14 -15 -17 -11 -4 -18 -9 -16 -12 3 -2 16 1 29 8 21 11 22 11 9 -4 -7 -10
-18 -17 -24 -17 -5 0 -16 -8 -24 -17 -8 -10 -11 -12 -7 -4 5 10 3 12 -5 7 -9
-6 -9 -11 1 -24 10 -12 10 -14 1 -8 -8 4 -13 1 -13 -8 0 -9 -5 -15 -11 -13 -6
1 -14 -4 -17 -12 -3 -9 0 -11 9 -7 8 4 5 0 -6 -9 -11 -9 -19 -22 -17 -28 2 -7
0 -9 -4 -5 -4 4 -14 2 -22 -5 -13 -10 -14 -9 -7 2 5 10 4 12 -3 7 -7 -4 -12
-14 -12 -22 0 -8 -4 -14 -9 -14 -5 0 -12 -7 -15 -16 -3 -8 -2 -13 2 -10 5 3 9
-1 9 -9 0 -8 -4 -12 -9 -9 -5 4 -12 -4 -15 -16 -3 -11 -11 -19 -18 -16 -8 3
-11 -4 -9 -20 1 -13 -2 -24 -7 -24 -5 0 -8 -3 -8 -7 5 -29 -3 -73 -11 -68 -6
3 -7 -1 -4 -9 3 -9 1 -16 -5 -16 -6 0 -11 -5 -11 -11 0 -5 5 -7 11 -3 6 3 3
-5 -6 -20 -10 -14 -13 -26 -9 -26 5 0 2 -5 -6 -10 -17 -10 -20 -39 -6 -58 6
-9 4 -11 -7 -7 -8 4 -18 1 -23 -6 -5 -8 -3 -10 7 -5 8 4 5 0 -6 -9 -21 -17
-22 -19 -24 -61 0 -14 -5 -22 -11 -19 -6 4 -7 -1 -3 -11 5 -13 3 -15 -8 -9
-12 7 -12 6 -1 -7 11 -14 10 -19 -12 -33 -21 -14 -24 -21 -15 -36 9 -18 5 -23
-13 -20 -5 0 -8 -6 -8 -15 0 -9 5 -12 13 -8 6 4 5 -1 -4 -12 -9 -10 -15 -27
-14 -36 2 -11 -2 -15 -11 -11 -8 3 -14 0 -14 -6 0 -19 -2 -26 -12 -45 -8 -14
-7 -17 4 -10 7 4 5 -2 -5 -13 -14 -16 -15 -22 -5 -26 10 -4 10 -6 1 -6 -7 -1
-13 -10 -13 -22 0 -13 -4 -18 -12 -13 -10 6 -10 5 -1 -7 14 -18 0 -38 -26 -40
-11 0 -10 -3 4 -9 11 -5 15 -9 9 -9 -6 -1 -10 -14 -10 -30 0 -17 2 -28 6 -26
3 2 46 5 94 6 48 2 90 7 93 13 3 5 1 6 -5 2 -16 -10 -15 2 2 19 7 8 17 11 22
7 5 -4 2 1 -5 10 -11 15 -11 19 3 24 10 4 15 13 12 20 -3 8 1 14 8 14 8 0 17
7 20 16 9 23 8 26 -6 19 -7 -4 -5 0 4 8 10 8 14 18 10 22 -4 5 2 5 12 1 17 -6
17 -5 5 11 -9 11 -10 14 -2 9 9 -5 13 -1 13 11 0 14 2 15 9 5 6 -10 10 -4 16
20 4 18 7 37 6 42 -1 5 6 6 15 2 13 -5 14 -4 6 7 -15 18 -3 30 15 15 11 -9 12
-7 7 7 -5 13 -4 16 4 11 8 -5 10 -2 6 8 -3 9 -1 16 6 16 6 0 8 5 5 10 -3 6 0
10 8 10 8 0 21 8 28 18 11 14 11 15 -1 5 -22 -20 -32 -15 -12 5 9 10 23 16 31
14 8 -3 12 -1 8 5 -4 6 0 14 9 17 8 3 12 11 8 17 -4 8 -3 9 4 5 7 -4 20 -2 29
4 14 9 14 10 2 7 -9 -3 -16 1 -16 8 0 7 8 12 18 10 10 -2 24 4 31 13 12 15 11
16 -4 3 -10 -7 -18 -9 -18 -3 0 12 29 24 41 17 5 -4 6 2 2 12 -3 10 -3 15 2
11 4 -4 15 -2 23 5 13 10 15 9 8 -3 -4 -8 1 -5 12 8 21 23 38 30 26 10 -4 -7
-3 -8 4 -4 7 4 12 15 12 24 0 15 2 15 10 2 9 -13 12 -13 21 3 6 9 15 15 20 11
5 -3 19 5 30 18 11 13 18 17 14 11 -8 -16 7 -17 21 -3 6 6 27 12 47 13 19 1
33 5 31 9 -4 7 35 23 49 20 4 -1 7 2 7 6 0 5 14 7 30 4 18 -3 30 0 30 7 0 8
74 11 255 11 l255 0 -4 -22 c-2 -13 1 -28 6 -35 6 -7 5 -14 -2 -18 -8 -5 -8
-11 1 -21 7 -9 8 -19 2 -26 -5 -7 -8 -22 -6 -33 8 -58 9 -87 3 -90 -8 -5 -6
-37 3 -52 4 -6 3 -15 -3 -18 -8 -5 -7 -11 1 -21 9 -11 9 -18 1 -26 -6 -6 -8
-16 -5 -23 2 -8 0 -23 -7 -34 -8 -16 -8 -21 2 -21 10 0 10 -3 -1 -9 -8 -5 -11
-16 -8 -25 4 -9 2 -16 -4 -16 -6 0 -8 -4 -5 -8 3 -5 5 -33 5 -63 1 -83 0 -90
-9 -84 -5 3 -11 1 -14 -4 -4 -5 -1 -13 5 -17 8 -5 9 -3 4 6 -5 8 -4 11 2 7 10
-7 11 -42 1 -53 -4 -3 -4 -13 -1 -22 5 -11 3 -13 -6 -7 -10 6 -11 3 -2 -14 7
-11 8 -21 3 -21 -10 0 -9 -36 1 -46 3 -4 2 -15 -3 -25 -7 -12 -6 -19 1 -21 12
-4 -6 -46 -25 -59 -5 -4 -5 -12 -2 -18 4 -6 2 -11 -5 -11 -6 0 -9 -8 -6 -20 3
-11 1 -23 -4 -26 -6 -3 -5 -11 2 -20 9 -11 9 -14 -1 -14 -9 0 -10 -3 -1 -13 8
-10 7 -17 -2 -26 -6 -6 -13 -24 -14 -39 -5 -93 -7 -101 -17 -95 -6 4 -5 -1 3
-10 11 -14 11 -18 -3 -23 -9 -3 -13 -11 -9 -18 11 -16 12 -36 3 -36 -4 0 -11
-7 -14 -16 -4 -10 -2 -13 6 -8 7 5 8 3 2 -7 -10 -17 -15 -36 -17 -71 -1 -14
-6 -26 -12 -25 -5 1 -9 -4 -7 -10 1 -7 3 -19 5 -25 1 -7 -3 -12 -10 -11 -8 2
-10 -4 -6 -14 5 -12 3 -14 -8 -8 -12 8 -12 6 0 -8 11 -14 11 -18 -3 -23 -13
-5 -14 -9 -5 -20 9 -11 9 -14 0 -14 -7 0 -9 -4 -6 -10 3 -5 2 -10 -3 -10 -5 0
-8 -13 -7 -30 1 -17 -2 -27 -8 -23 -6 4 -8 0 -4 -10 3 -9 0 -18 -9 -21 -8 -3
-14 -11 -14 -18 0 -9 3 -8 10 2 6 9 10 10 10 3 0 -6 -4 -14 -10 -18 -5 -3 -6
-13 -3 -22 4 -11 3 -14 -5 -9 -11 7 -16 -12 -15 -51 1 -7 -3 -13 -7 -13 -4 0
-11 -7 -14 -16 -4 -10 -2 -13 7 -9 6 4 3 -1 -7 -9 -11 -9 -16 -16 -12 -16 5 0
3 -7 -4 -15 -9 -11 -9 -15 -1 -15 7 0 9 -4 6 -10 -3 -5 -16 -10 -28 -10 -20 0
-20 0 -1 -15 12 -9 14 -14 6 -15 -7 0 -10 -4 -7 -10 3 -5 2 -10 -3 -10 -6 0
-8 -9 -5 -20 3 -11 1 -20 -5 -20 -9 0 -18 -20 -27 -59 -2 -8 -9 -18 -17 -22
-7 -4 -9 -11 -5 -15 4 -4 -1 -13 -11 -21 -9 -8 -11 -12 -5 -8 9 4 11 1 7 -10
-4 -9 -12 -14 -19 -11 -8 3 -11 -2 -8 -13 2 -10 -3 -25 -12 -35 -9 -9 -11 -16
-5 -16 6 0 8 -5 5 -11 -4 -6 -13 -8 -21 -5 -8 3 -11 0 -7 -10 3 -8 1 -20 -5
-27 -6 -6 -10 -16 -10 -20 0 -5 -4 -12 -8 -15 -4 -4 -4 -1 1 7 6 10 4 12 -4 6
-7 -4 -10 -16 -8 -27 4 -15 3 -17 -8 -8 -9 8 -14 6 -19 -5 -4 -11 -2 -14 7
-10 6 4 3 0 -7 -9 -10 -8 -23 -13 -29 -9 -6 3 -7 1 -3 -6 4 -6 11 -9 15 -7 4
3 8 -1 8 -9 0 -8 -3 -13 -6 -11 -3 2 -12 -2 -19 -10 -10 -11 -10 -14 0 -14 7
0 2 -10 -12 -21 -14 -11 -20 -18 -14 -15 6 3 11 -1 11 -8 0 -8 -6 -12 -12 -9
-8 2 -11 -5 -10 -20 3 -25 -28 -69 -55 -80 -12 -4 -12 -6 2 -6 17 -1 17 -2 1
-21 -10 -11 -24 -20 -31 -20 -12 0 -12 -3 -2 -15 10 -12 8 -14 -9 -10 -13 2
-18 -1 -15 -10 3 -7 0 -16 -7 -21 -8 -5 -10 -3 -4 6 5 9 4 11 -4 6 -9 -6 -9
-11 0 -22 7 -9 8 -14 3 -13 -21 4 -26 -2 -14 -16 11 -13 10 -14 -5 -9 -12 5
-16 4 -12 -3 4 -6 0 -14 -9 -17 -10 -4 -14 -12 -10 -23 4 -10 4 -14 0 -10 -4
4 -12 -3 -19 -16 -6 -12 -18 -22 -26 -21 -8 1 -15 -9 -16 -24 0 -13 -6 -29
-13 -36 -10 -8 -11 -6 -5 12 3 12 4 22 1 22 -3 0 -10 -18 -16 -40 -6 -22 -15
-40 -21 -40 -6 0 -7 5 -3 12 4 7 3 8 -5 4 -9 -6 -9 -11 0 -22 9 -11 7 -14 -12
-14 -19 0 -21 -2 -9 -10 13 -8 12 -10 -2 -10 -10 0 -17 -6 -15 -12 1 -7 -4
-12 -11 -10 -10 2 -11 -4 -7 -19 5 -15 4 -19 -4 -15 -6 4 -11 0 -11 -9 0 -8
-6 -18 -14 -21 -8 -3 -12 -12 -9 -20 3 -9 -1 -14 -12 -14 -9 0 -13 -5 -10 -10
3 -6 1 -10 -5 -10 -7 0 -10 -7 -6 -15 3 -8 0 -15 -7 -15 -14 0 -43 -40 -39
-54 2 -4 -3 -15 -10 -24 -8 -10 -9 -13 -1 -9 14 9 11 -22 -3 -31 -16 -11 -24
-41 -14 -47 6 -4 10 -11 10 -16 0 -6 -3 -8 -7 -6 -10 6 -8 -106 1 -121 3 -6 1
-14 -5 -18 -8 -5 -7 -9 2 -14 10 -7 10 -11 0 -24 -10 -12 -9 -17 9 -26 12 -7
19 -18 16 -25 -3 -8 2 -22 11 -31 14 -13 14 -17 2 -25 -12 -7 -12 -9 1 -10 8
-1 19 -1 23 0 4 1 3 -8 -3 -18 -7 -14 -7 -22 2 -27 7 -4 8 -3 4 4 -4 7 -2 12
5 12 7 0 9 -10 7 -24 -4 -19 -1 -23 16 -19 17 4 18 3 6 -6 -13 -9 -13 -11 3
-11 9 0 17 -4 17 -10 0 -5 7 -10 16 -10 8 0 13 -4 10 -8 -8 -13 33 -44 47 -36
7 4 9 4 5 -1 -4 -4 -2 -15 5 -24 11 -14 10 -15 -7 -1 -18 14 -19 14 -5 -7 9
-15 16 -19 21 -10 8 13 10 11 26 -18 6 -11 12 -14 12 -8 0 10 6 10 25 1 13 -6
22 -16 18 -21 -4 -6 0 -8 11 -4 10 4 19 1 23 -9 5 -13 7 -13 14 -2 7 10 9 10
9 1 0 -7 9 -13 20 -13 11 0 20 -5 20 -11 0 -8 6 -7 17 2 13 11 15 11 9 1 -7
-11 15 -13 117 -11 69 2 123 7 121 11 -3 4 1 8 10 8 8 0 17 6 19 13 4 9 6 8 6
-2 1 -11 4 -11 18 0 15 12 16 12 8 -1 -4 -8 2 -5 14 8 12 12 27 22 34 22 7 0
6 -4 -3 -10 -9 -6 -10 -10 -3 -10 7 0 17 9 23 21 6 11 17 18 23 16 6 -2 18 4
27 13 8 9 12 11 8 5 -4 -7 -2 -12 5 -12 8 0 14 6 15 14 1 7 3 20 4 28 1 8 5
12 10 9 5 -3 5 -11 2 -17 -5 -9 -4 -9 5 -1 7 6 13 20 14 31 0 13 6 19 14 16 7
-3 10 -10 6 -16 -3 -5 -1 -7 5 -4 5 4 8 16 5 27 -3 12 0 20 6 20 7 0 9 -4 6
-10 -3 -5 -4 -10 0 -10 7 0 29 52 26 63 -1 5 3 6 8 2 6 -3 8 -13 5 -23 -5 -14
-4 -15 5 -2 6 8 11 23 11 32 0 9 4 20 10 23 6 4 7 -1 3 -12 -8 -23 1 -15 17
16 10 19 10 22 -2 16 -7 -3 -5 0 4 8 10 8 15 17 11 20 -3 4 -1 7 6 7 6 0 11 8
9 18 -2 9 3 16 10 15 7 -2 12 7 12 22 0 14 4 25 8 25 12 0 33 50 27 61 -4 5
-1 9 5 9 6 0 9 4 6 9 -4 5 -1 11 5 13 6 2 12 18 13 35 1 24 -1 30 -13 25 -10
-4 -13 -1 -8 11 3 9 2 17 -3 17 -6 0 -10 5 -10 10 0 6 8 10 18 10 21 0 62 27
62 41 0 6 -6 7 -13 3 -8 -5 -8 -2 2 9 7 9 10 17 7 17 -4 0 -2 8 3 18 7 13 6
23 -1 30 -9 9 -9 12 1 12 8 0 11 6 7 15 -5 14 5 20 27 16 5 -1 6 3 2 9 -3 6
-12 8 -18 4 -7 -3 -4 1 7 10 11 9 17 23 14 34 -3 11 -1 26 3 35 7 11 4 19 -7
25 -15 8 -15 10 1 16 15 5 15 9 4 22 -11 14 -11 18 3 28 12 8 15 20 11 36 -5
17 -3 21 7 15 10 -6 11 -4 4 6 -12 19 -14 40 -3 34 5 -3 12 12 15 34 4 23 10
38 15 36 4 -3 11 0 15 6 4 8 3 9 -4 5 -14 -9 -16 13 -2 34 5 9 5 19 -1 26 -6
8 -6 14 0 18 5 3 7 16 3 28 -3 14 -1 19 6 14 7 -4 10 1 7 14 -2 11 1 20 7 20
7 0 7 4 -1 13 -7 10 -7 17 0 24 8 8 8 13 0 17 -8 5 -8 13 -1 27 6 10 8 19 5
19 -3 0 -1 10 6 21 9 17 8 20 -3 13 -10 -6 -11 -5 -1 8 7 8 10 18 6 21 -3 4
-2 7 3 7 10 0 10 62 -1 79 -3 6 -1 11 5 11 6 0 8 4 5 10 -3 6 -2 10 3 10 5 0
9 40 10 90 0 49 3 94 7 100 3 5 1 10 -4 10 -6 0 -10 3 -10 8 1 4 1 16 0 27 -1
15 -3 17 -10 7 -6 -10 -10 -6 -14 15 -6 33 0 44 13 23 7 -11 10 -12 10 -2 0 7
5 10 10 7 6 -3 10 -1 10 5 0 6 4 9 8 6 9 -6 8 36 -1 51 -4 7 -3 15 3 18 8 5 8
11 0 20 -8 10 -5 17 12 30 15 12 17 15 6 12 -10 -4 -18 -2 -18 3 0 6 5 10 10
10 6 0 10 34 10 81 0 47 4 78 9 74 5 -3 13 0 17 6 4 7 3 9 -3 6 -17 -11 -23
20 -7 34 10 8 11 15 4 24 -8 9 -8 15 0 20 8 5 8 11 -1 21 -7 9 -8 19 -3 27 11
14 11 37 1 54 -4 6 -3 14 3 18 6 4 7 12 3 18 -11 17 -13 38 -3 32 5 -3 11 -1
15 5 3 5 0 10 -7 10 -9 0 -10 3 -2 8 15 9 23 91 9 96 -6 3 -5 5 2 5 6 1 9 10
5 23 -4 16 -2 19 9 13 12 -8 12 -6 0 8 -11 14 -11 18 3 23 12 5 14 10 6 19 -8
10 -8 15 0 20 8 5 8 10 0 20 -8 9 -8 15 0 20 7 4 7 12 0 26 -8 14 -7 19 1 19
8 0 8 5 -2 16 -10 13 -10 17 2 25 8 5 9 9 3 9 -7 0 -15 7 -18 16 -3 8 -2 12 4
9 6 -3 10 -1 10 5 0 6 5 8 11 4 8 -4 8 0 0 15 -10 17 -9 22 3 27 12 5 13 11 5
25 -7 14 -6 19 2 19 8 0 8 4 1 13 -7 8 -7 18 -2 27 5 9 5 19 -2 27 -6 7 -6 13
-1 13 5 0 7 14 5 31 -3 21 -1 30 6 25 6 -3 14 -1 18 5 4 7 3 9 -3 6 -16 -10
-23 18 -10 39 14 21 15 43 4 61 -4 6 -3 15 3 18 8 5 7 11 -1 21 -7 9 -8 19 -2
27 5 6 8 23 6 37 -6 41 -3 85 6 88 4 1 6 14 3 29 -3 16 -1 24 5 20 7 -5 8 4 3
27 -4 19 -4 40 1 47 4 7 3 19 -3 26 -6 8 -6 13 -1 13 5 0 9 14 8 30 -1 19 4
34 14 40 10 6 12 9 3 10 -9 0 -10 5 -3 18 7 13 7 22 -1 30 -8 8 -8 15 0 25 8
9 8 17 1 24 -8 8 -8 13 0 17 6 4 7 15 1 30 -6 17 -4 30 6 45 12 16 12 21 2 21
-10 0 -10 2 0 9 8 4 13 11 13 15 -1 3 -1 17 -1 31 l0 25 473 0 c259 0 477 0
482 1 6 1 15 0 20 -1 6 -1 23 -2 38 -2 20 1 28 -4 26 -16 -1 -9 0 -21 1 -27 4
-23 2 -86 -4 -92 -3 -3 -1 -12 5 -20 6 -7 7 -13 2 -13 -5 0 -7 -14 -5 -31 3
-19 1 -29 -5 -26 -5 3 -10 0 -10 -8 0 -8 5 -11 11 -8 6 4 5 -1 -3 -10 -15 -18
-19 -86 -7 -105 3 -6 2 -13 -2 -16 -10 -6 -9 -36 1 -54 5 -8 3 -10 -6 -6 -12
4 -14 -11 -15 -83 0 -51 -5 -89 -11 -91 -5 -2 -8 -9 -5 -17 3 -7 0 -16 -6 -20
-9 -6 -9 -9 0 -15 8 -5 9 -13 4 -21 -5 -8 -9 -25 -10 -39 -1 -14 -3 -27 -4
-30 -1 -3 -2 -12 -1 -22 1 -9 -3 -19 -9 -23 -6 -4 -7 -12 -1 -24 6 -10 6 -23
1 -31 -5 -9 -5 -19 2 -27 7 -9 7 -13 0 -13 -6 0 -7 -13 -2 -34 4 -19 4 -40 -1
-47 -4 -7 -3 -19 3 -26 7 -9 7 -13 -2 -13 -7 0 -10 -8 -7 -20 3 -11 1 -23 -4
-26 -5 -3 -7 -9 -4 -14 3 -5 1 -11 -4 -14 -6 -4 -6 -18 -1 -34 4 -16 4 -36 -2
-45 -6 -12 -5 -17 3 -17 7 0 5 -9 -6 -26 -9 -15 -12 -23 -6 -20 6 4 11 2 11
-3 0 -6 -4 -11 -9 -11 -4 0 -8 -20 -8 -44 0 -24 -3 -47 -6 -53 -3 -5 -2 -15 3
-23 5 -8 5 -22 -1 -32 -7 -13 -6 -18 2 -18 8 0 8 -4 -1 -15 -6 -8 -9 -19 -5
-25 3 -5 1 -10 -6 -10 -7 0 -9 -3 -6 -7 4 -3 2 -12 -4 -20 -9 -10 -8 -13 1
-13 9 0 9 -4 2 -13 -6 -7 -7 -18 -3 -26 4 -7 5 -30 1 -51 -4 -24 -3 -43 3 -49
7 -7 7 -11 1 -11 -5 0 -10 -10 -11 -22 -1 -11 -8 -25 -15 -29 -10 -7 -11 -9 0
-9 10 0 10 -5 2 -20 -8 -15 -8 -20 2 -20 9 0 9 -3 0 -12 -7 -7 -8 -17 -1 -30
6 -11 6 -18 0 -18 -5 0 -8 -10 -6 -21 2 -12 0 -31 -6 -41 -9 -16 -8 -19 3 -12
10 6 10 4 -1 -10 -16 -19 -21 -65 -9 -72 5 -3 4 -14 -2 -24 -7 -13 -7 -21 0
-25 8 -5 8 -11 1 -19 -7 -9 -7 -16 0 -23 8 -8 4 -16 -13 -28 -15 -11 -17 -15
-5 -12 9 4 17 2 17 -3 0 -6 -5 -10 -11 -10 -7 0 -9 -10 -7 -24 3 -14 1 -30 -3
-38 -4 -7 -3 -18 3 -25 7 -9 7 -13 -2 -13 -9 0 -9 -4 -2 -13 7 -8 7 -18 2 -27
-5 -9 -5 -19 2 -27 6 -7 7 -13 2 -13 -5 0 -7 -34 -4 -76 3 -42 2 -81 -2 -87
-4 -6 -2 -17 4 -24 6 -7 7 -13 2 -13 -5 0 -9 -30 -9 -67 0 -64 -11 -149 -21
-165 -2 -3 0 -10 6 -13 8 -5 8 -11 0 -20 -8 -10 -8 -15 0 -20 8 -5 8 -10 0
-20 -8 -10 -8 -15 0 -20 8 -5 8 -10 0 -20 -8 -10 -8 -15 0 -20 8 -5 8 -10 0
-20 -8 -10 -8 -15 0 -20 8 -5 8 -10 0 -20 -8 -10 -8 -15 0 -20 7 -5 8 -11 1
-19 -6 -7 -6 -18 -1 -26 4 -7 4 -24 -1 -37 -5 -12 -5 -23 0 -23 4 0 8 -6 8
-12 0 -7 4 -29 8 -48 4 -19 7 -43 7 -52 0 -10 5 -18 11 -18 7 0 6 -4 -3 -10
-13 -9 -11 -13 9 -29 16 -12 20 -20 12 -25 -8 -5 -5 -17 11 -39 12 -17 17 -28
12 -24 -6 3 -11 0 -11 -8 0 -8 5 -11 10 -8 6 4 8 -3 5 -15 -4 -12 -2 -20 2
-17 5 3 11 1 15 -5 3 -5 0 -10 -7 -10 -7 0 2 -12 20 -26 18 -14 30 -30 27 -35
-6 -9 21 -69 31 -69 3 0 2 6 -1 13 -4 6 2 1 13 -12 11 -14 18 -30 15 -37 -2
-7 1 -15 8 -20 8 -5 10 -3 5 7 -4 8 -1 5 8 -5 8 -10 13 -23 9 -28 -3 -6 5 -5
17 2 18 10 21 9 15 -1 -5 -7 -1 -17 10 -26 11 -7 16 -13 12 -13 -4 0 3 -11 15
-25 12 -14 25 -25 30 -25 4 0 -1 9 -12 20 -11 11 -20 26 -20 33 0 6 6 3 12 -8
6 -11 17 -24 25 -28 7 -5 11 -12 8 -18 -4 -5 5 -13 19 -19 14 -5 26 -12 26
-14 0 -3 -8 -2 -17 1 -15 6 -16 5 -3 -9 12 -12 19 -13 30 -5 8 6 12 8 8 3 -4
-4 -1 -14 5 -21 9 -10 15 -10 26 -1 8 6 12 7 9 1 -3 -5 0 -16 8 -23 11 -10 14
-10 14 0 0 6 6 4 13 -7 8 -10 19 -15 25 -11 7 4 12 2 12 -4 0 -6 5 -8 10 -5 6
4 10 3 9 -2 -3 -20 2 -27 11 -13 7 11 10 11 10 2 0 -7 5 -10 10 -7 6 3 10 1
10 -5 0 -7 7 -10 15 -6 8 3 15 1 15 -4 0 -5 7 -7 15 -4 8 4 15 1 15 -5 0 -6 7
-8 17 -4 10 4 14 2 10 -4 -4 -6 15 -11 50 -12 32 -1 60 -7 64 -12 4 -8 8 -7
12 2 4 10 6 10 6 2 1 -16 281 -19 281 -3 0 6 5 10 11 10 5 0 7 -6 3 -12 -6
-10 -5 -10 7 -1 8 6 28 13 44 14 17 2 32 6 35 9 3 3 16 11 29 18 20 12 25 12
32 0 7 -10 9 -10 9 0 0 6 9 12 19 12 11 0 23 5 26 10 4 6 11 8 16 5 5 -4 9 -2
9 4 0 5 8 8 18 6 21 -3 52 22 52 44 0 14 2 14 10 1 7 -12 10 -12 10 -1 0 8 6
11 16 7 15 -6 15 -4 3 10 -13 16 -12 16 8 5 19 -10 22 -9 17 4 -5 13 4 19 26
17 3 0 6 8 6 18 0 10 -3 17 -6 15 -3 -2 -6 10 -6 26 -1 19 3 29 12 29 17 0 18
-12 2 -30 -7 -8 -3 -6 10 4 13 12 22 15 22 7 0 -7 5 -9 10 -6 6 3 10 1 10 -6
0 -7 3 -9 6 -6 4 4 1 13 -6 22 -11 13 -10 14 5 9 13 -5 16 -4 11 4 -5 8 -2 10
8 6 11 -4 16 0 16 15 0 14 5 19 15 15 11 -4 13 -2 9 9 -3 8 0 18 7 23 8 4 10
3 5 -4 -4 -7 -4 -12 1 -12 4 0 16 14 25 31 10 16 13 27 7 23 -6 -3 -5 3 3 15
7 12 19 19 27 16 11 -5 12 -3 1 10 -7 9 -9 15 -4 14 5 -1 18 -1 29 0 17 1 18
3 5 11 -13 8 -12 10 2 10 10 0 17 6 15 13 -1 6 4 11 11 10 6 -2 12 4 12 13 0
9 -5 12 -12 8 -7 -4 -8 -3 -4 5 4 6 11 9 15 7 4 -3 13 4 20 16 9 15 10 18 0
13 -8 -6 -10 -4 -5 4 5 7 14 10 22 7 8 -3 11 0 7 10 -3 8 2 23 11 33 9 10 13
21 9 24 -3 4 -2 7 4 7 6 0 9 11 7 26 -2 22 0 23 14 12 9 -8 13 -8 9 -1 -4 6
-3 22 2 35 6 12 10 17 10 9 1 -8 4 -11 7 -8 4 4 1 14 -7 24 -9 11 -10 14 -1 9
11 -6 17 5 13 27 0 4 4 7 10 7 8 0 8 5 -1 15 -9 10 -9 15 -1 15 6 0 11 7 11
15 0 8 8 15 18 16 14 0 14 2 -3 9 -11 5 -14 9 -7 9 7 1 12 9 10 19 -2 9 3 16
10 15 6 -2 12 4 12 13 0 8 -4 13 -9 10 -5 -4 -4 5 2 18 7 13 15 22 19 20 5 -3
8 0 8 5 0 6 -6 11 -12 11 -9 0 -10 3 -2 8 6 4 11 14 12 22 3 89 6 109 16 103
6 -4 4 2 -4 12 -9 11 -10 16 -2 11 7 -4 12 -2 12 4 0 6 5 8 13 4 9 -6 9 -4 -1
8 -10 13 -10 18 -1 24 8 5 9 3 4 -6 -5 -8 -4 -11 3 -7 11 7 5 44 -10 64 -6 7
-3 13 9 16 15 4 15 5 2 6 -22 1 -31 37 -12 52 11 10 11 14 1 20 -10 7 -10 9
-1 9 7 0 12 3 12 8 -4 23 2 52 10 47 5 -3 12 -1 16 5 4 6 -30 10 -99 10 -95 0
-133 -9 -107 -24 10 -7 9 -25 -2 -43 -4 -6 -3 -14 3 -18 6 -4 5 -14 -3 -28 -8
-12 -13 -32 -12 -44 1 -13 -2 -23 -8 -23 -5 0 -7 -13 -4 -30 5 -22 2 -32 -11
-39 -13 -8 -14 -10 -2 -11 12 0 12 -3 -2 -16 -12 -13 -14 -23 -7 -41 6 -16 5
-22 -1 -18 -6 3 -11 1 -11 -4 -1 -6 -2 -17 -3 -23 -1 -7 -10 -12 -19 -11 -12
0 -16 -4 -13 -13 3 -8 -1 -14 -9 -14 -8 0 -15 -5 -15 -11 0 -5 -6 -7 -12 -3
-8 5 -7 0 2 -11 14 -17 14 -18 -7 -7 -19 11 -20 10 -15 -11 5 -20 4 -20 -11
-8 -20 16 -23 1 -4 -18 10 -10 8 -11 -7 -5 -15 6 -17 4 -11 -6 5 -9 4 -11 -4
-6 -12 8 -57 -22 -58 -39 -1 -5 -7 -11 -14 -14 -8 -2 -9 1 -3 10 6 11 5 12 -8
2 -8 -7 -18 -10 -22 -6 -4 4 -4 -1 0 -11 5 -13 4 -17 -3 -13 -6 4 -16 0 -23
-8 -6 -7 -17 -12 -24 -9 -8 3 -21 -2 -30 -11 -9 -9 -16 -12 -16 -7 0 5 -7 9
-15 9 -8 0 -12 -4 -9 -9 3 -4 -49 -8 -115 -8 -67 0 -121 4 -121 9 0 4 -12 8
-27 9 -47 0 -54 2 -49 10 2 4 -7 9 -22 10 -15 1 -28 7 -30 12 -2 6 -10 10 -17
10 -7 0 -16 6 -18 13 -4 9 -8 8 -16 -3 -6 -8 -11 -10 -11 -4 0 5 -15 25 -32
44 -18 18 -27 30 -21 26 9 -5 11 -2 7 8 -3 9 -11 13 -17 9 -7 -4 -8 0 -3 12 5
14 4 16 -7 7 -19 -16 -30 -3 -14 16 9 13 9 14 0 8 -8 -4 -13 -2 -13 4 0 6 -4
9 -9 6 -5 -3 -11 1 -14 9 -4 10 -1 12 11 8 14 -5 13 -2 -3 14 -11 11 -23 19
-27 16 -4 -2 -5 4 -1 13 4 10 0 20 -10 26 -10 5 -17 17 -17 26 0 10 -7 28 -16
40 -14 20 -14 22 3 22 14 0 14 3 -6 16 -18 13 -20 18 -10 25 12 7 12 9 0 9 -7
0 -11 6 -7 15 3 8 0 15 -7 15 -9 0 -8 3 1 9 11 7 10 9 -3 15 -12 4 -14 10 -7
23 6 10 6 27 0 45 -6 16 -8 32 -4 35 3 3 1 12 -5 20 -6 7 -9 21 -6 32 2 10 1
25 -4 32 -4 7 -3 21 2 30 5 11 5 20 0 24 -5 3 -6 18 -2 33 9 33 8 43 -3 60 -4
7 -4 18 1 25 5 7 8 21 6 32 -8 58 -9 87 -3 90 8 5 6 37 -3 52 -4 6 -3 15 3 18
8 5 7 11 -1 21 -7 9 -8 19 -2 27 10 13 10 54 0 63 -3 3 -2 17 3 30 5 13 6 26
0 29 -5 3 -5 18 -1 33 9 33 8 43 -3 60 -4 7 -3 18 2 25 5 7 8 20 7 30 -2 9 0
17 4 17 4 0 7 14 6 30 -1 17 2 33 7 36 5 3 4 12 -3 20 -7 9 -8 14 -1 14 7 0 8
10 2 30 -5 17 -5 30 -1 30 5 0 5 18 1 39 -6 34 -4 41 14 50 12 7 14 10 4 7
-17 -5 -19 9 -4 32 11 18 14 72 4 66 -4 -3 -4 6 2 20 6 17 6 27 -1 32 -6 3 -6
10 -1 17 5 7 8 20 7 30 -2 9 0 17 4 17 5 0 8 20 8 45 0 25 3 48 6 52 4 3 2 12
-4 20 -8 9 -8 13 0 13 7 0 8 8 1 25 -9 23 -6 29 13 26 4 0 7 6 7 15 0 9 -5 12
-12 8 -7 -4 -4 2 6 14 11 12 14 22 8 22 -6 0 -9 6 -6 13 8 22 10 97 3 97 -4 0
-5 9 -2 20 3 11 9 18 13 15 4 -2 7 29 7 71 1 41 4 78 7 81 3 3 1 12 -5 20 -6
7 -7 13 -2 13 5 0 7 14 5 31 -3 19 -1 29 5 26 5 -3 10 0 10 8 0 8 -5 11 -11 8
-6 -4 -5 1 3 11 15 18 19 60 8 89 -3 9 -3 19 2 21 9 6 8 42 -2 52 -3 4 -2 15
4 25 7 13 6 19 -1 19 -7 0 -7 7 1 21 9 17 8 20 -3 13 -8 -5 -6 2 5 19 12 19
14 27 5 27 -7 0 -5 5 5 11 14 8 16 14 6 25 -7 9 -8 14 -1 14 7 0 8 10 2 30 -5
19 -5 30 1 30 6 0 8 4 5 8 -5 8 -8 126 -4 165 1 16 35 17 552 17 505 0 599 4
567 24 -7 5 -8 13 -1 25 6 12 5 22 -2 29 -9 9 -9 12 1 12 10 0 11 3 3 13 -7 8
-7 18 -2 27 5 9 5 19 -2 27 -7 9 -7 13 2 13 9 0 9 4 2 13 -7 8 -7 18 -2 27 5
9 5 19 -2 27 -7 9 -7 13 2 13 9 0 9 4 2 13 -7 8 -7 18 -2 27 5 9 5 19 -2 27
-7 9 -7 13 2 13 9 0 9 4 2 13 -7 8 -7 18 -2 27 5 9 5 19 -2 27 -7 9 -7 13 2
13 9 0 9 4 2 13 -7 8 -7 18 -2 27 5 9 5 19 -2 27 -7 9 -7 13 2 13 9 0 9 4 2
13 -7 8 -7 18 -2 27 5 9 5 19 -2 27 -7 9 -7 13 2 13 9 0 9 4 2 13 -7 8 -7 18
-2 27 5 9 5 19 -2 27 -7 9 -7 13 2 13 9 0 9 4 2 13 -7 8 -7 18 -2 27 5 8 6 18
4 22 -3 4 -146 8 -319 8 -241 0 -314 3 -318 13 -4 10 -6 10 -6 0 -1 -14 -31
-18 -31 -5 0 5 -7 9 -15 9 -8 0 -12 -4 -9 -9 3 -4 0 -8 -5 -8 -6 0 -11 5 -11
10 0 16 -1962 14 -1978 -2 -10 -10 -15 -10 -22 2 -7 10 -10 11 -10 3z m-616
-1809 c3 -8 2 -12 -4 -9 -6 3 -10 10 -10 16 0 14 7 11 14 -7z m2953 -1907 c0
-8 -6 -14 -14 -14 -9 0 -10 4 -2 14 6 7 12 13 14 13 1 0 2 -6 2 -13z m-3903
-125 c3 -5 -1 -9 -9 -9 -8 0 -12 4 -9 9 3 4 7 8 9 8 2 0 6 -4 9 -8z m3660
-633 c-3 -5 -10 -7 -15 -3 -5 3 -7 10 -3 15 3 5 10 7 15 3 5 -3 7 -10 3 -15z"/>
<path d="M720 6400 c-9 -6 -10 -10 -3 -10 6 0 15 5 18 10 8 12 4 12 -15 0z"/>
<path d="M1189 3623 c-13 -16 -12 -17 4 -4 9 7 17 15 17 17 0 8 -8 3 -21 -13z"/>
<path d="M3880 3320 c0 -5 5 -10 11 -10 5 0 7 5 4 10 -3 6 -8 10 -11 10 -2 0
-4 -4 -4 -10z"/>
<path d="M4011 3144 c-1 -7 8 -22 19 -35 10 -13 19 -18 20 -11 0 6 -4 12 -8
12 -5 0 -14 10 -20 23 -6 12 -11 17 -11 11z"/>
<path d="M3186 2705 c4 -8 11 -15 16 -15 6 0 5 6 -2 15 -7 8 -14 15 -16 15 -2
0 -1 -7 2 -15z"/>
<path d="M3240 2602 c0 -5 7 -9 15 -9 8 0 12 4 9 9 -3 4 -9 8 -15 8 -5 0 -9
-4 -9 -8z"/>
</g>
</svg>
